<?xml version="1.0" encoding="UTF-8"?> <svg xmlns="http://www.w3.org/2000/svg" width="61" height="34" viewBox="0 0 61 34" fill="none"><path d="M22.1098 32.266C22.1098 33.3136 20.7323 33.7169 20.1408 32.8683L20.1132 32.827L1.87249 4.19095V32.7587C1.87249 33.2656 1.45332 33.6765 0.936246 33.6765C0.419171 33.6765 0 33.2656 0 32.7587V1.4811C2.00537e-05 0.433551 1.37748 0.0302256 1.96899 0.878785L1.99655 0.920152L20.2373 29.556V0.988409C20.2373 0.481517 20.6565 0.0706006 21.1736 0.0706006C21.6906 0.0706006 22.1098 0.481517 22.1098 0.988409V32.266Z" fill="white"></path><path d="M37.2338 31.7703C37.7508 31.7703 38.17 32.1812 38.17 32.6881C38.17 33.195 37.7508 33.6059 37.2338 33.6059H26.863C26.346 33.6059 25.9268 33.195 25.9268 32.6881C25.9268 32.1812 26.346 31.7703 26.863 31.7703H37.2338Z" fill="white"></path><path d="M35.3613 24.216C35.3613 22.4224 33.8781 20.9684 32.0484 20.9684C30.2188 20.9684 28.7355 22.4224 28.7355 24.216C28.7355 26.0096 30.2188 27.4636 32.0484 27.4636V29.2993C29.1846 29.2993 26.863 27.0234 26.863 24.216C26.863 21.4086 29.1846 19.1328 32.0484 19.1328C34.9122 19.1328 37.2338 21.4086 37.2338 24.216C37.2338 27.0234 34.9122 29.2993 32.0484 29.2993V27.4636C33.8781 27.4636 35.3613 26.0096 35.3613 24.216Z" fill="white"></path><path d="M25.9268 0.917808C25.9268 0.410917 26.346 0 26.863 0C27.3801 0 27.7993 0.410917 27.7993 0.917808V4.30664H37.2338C37.7508 4.30664 38.17 4.71756 38.17 5.22445C38.17 5.73134 37.7508 6.14226 37.2338 6.14226H27.7993V14.6849H30.2232V10.6607C30.2232 10.1538 30.6424 9.74292 31.1594 9.74289C31.6765 9.74289 32.0957 10.1538 32.0957 10.6607V14.6849H37.2338C37.7508 14.6849 38.17 15.0958 38.17 15.6027C38.17 16.1096 37.7508 16.5205 37.2338 16.5205H27.0071C26.4105 16.5205 25.9268 16.0464 25.9268 15.4615V0.917808Z" fill="white"></path><path d="M57.5431 8.11907C57.5431 4.76579 54.7701 2.04742 51.3495 2.04742C47.9288 2.04742 45.1558 4.76579 45.1558 8.11907C45.1558 11.4724 47.9288 14.1907 51.3495 14.1907V16.0263C46.8947 16.0263 43.2834 12.4861 43.2834 8.11907C43.2834 3.75201 46.8947 0.211802 51.3495 0.211802C55.8043 0.211802 59.4156 3.75201 59.4156 8.11907C59.4156 12.4861 55.8043 16.0263 51.3495 16.0263V14.1907C54.7701 14.1907 57.5431 11.4724 57.5431 8.11907Z" fill="white"></path><path d="M59.1275 23.863C59.1275 19.4964 55.6063 16.0263 51.3495 16.0263C47.0926 16.0263 43.5714 19.4964 43.5714 23.863C43.5714 28.2296 47.0926 31.6997 51.3495 31.6997V33.5353C46.0196 33.5353 41.6989 29.2049 41.6989 23.863C41.6989 18.5212 46.0196 14.1907 51.3495 14.1907C56.6793 14.1907 61 18.5212 61 23.863C61 29.2049 56.6793 33.5353 51.3495 33.5353V31.6997C55.6063 31.6997 59.1275 28.2296 59.1275 23.863Z" fill="white"></path></svg> 